<svg width="15" height="12" viewBox="0 0 15 12" fill="none" xmlns="http://www.w3.org/2000/svg">
<path d="M14.1395 4.80817C14.5537 4.80817 14.8895 5.14395 14.8895 5.55817C14.8895 5.97238 14.5537 6.30817 14.1395 6.30817V4.80817ZM0.213848 6.0885C-0.0790453 5.7956 -0.0790453 5.32073 0.213848 5.02784L4.98682 0.254866C5.27971 -0.0380278 5.75459 -0.0380278 6.04748 0.254866C6.34037 0.547759 6.34037 1.02263 6.04748 1.31553L1.80484 5.55817L6.04748 9.80081C6.34037 10.0937 6.34037 10.5686 6.04748 10.8615C5.75459 11.1544 5.27971 11.1544 4.98682 10.8615L0.213848 6.0885ZM14.1395 6.30817H0.744178V4.80817H14.1395V6.30817Z" fill="#F2F2F2"/>
</svg>
