<svg width="25" height="24" viewBox="0 0 25 24" fill="none" xmlns="http://www.w3.org/2000/svg">
<path d="M7.80009 5.97003C7.65947 5.82958 7.46884 5.75069 7.27009 5.75069C7.07134 5.75069 6.88072 5.82958 6.74009 5.97003L1.49009 11.22C1.34964 11.3607 1.27075 11.5513 1.27075 11.75C1.27075 11.9488 1.34964 12.1394 1.49009 12.28L6.74009 17.53C6.88227 17.6625 7.07031 17.7346 7.26461 17.7312C7.45892 17.7278 7.6443 17.6491 7.78171 17.5117C7.91913 17.3742 7.99784 17.1889 8.00127 16.9946C8.00469 16.8003 7.93257 16.6122 7.80009 16.47L3.83009 12.5H20.2101L16.2401 16.47C16.1664 16.5387 16.1073 16.6215 16.0663 16.7135C16.0253 16.8055 16.0033 16.9048 16.0015 17.0055C15.9997 17.1062 16.0182 17.2062 16.056 17.2996C16.0937 17.393 16.1498 17.4778 16.2211 17.5491C16.2923 17.6203 16.3771 17.6764 16.4705 17.7142C16.5639 17.7519 16.6639 17.7704 16.7646 17.7686C16.8653 17.7668 16.9646 17.7448 17.0566 17.7038C17.1486 17.6628 17.2314 17.6037 17.3001 17.53L22.5501 12.28C22.6905 12.1394 22.7694 11.9488 22.7694 11.75C22.7694 11.5513 22.6905 11.3607 22.5501 11.22L17.3001 5.97003C17.2314 5.89634 17.1486 5.83724 17.0566 5.79625C16.9646 5.75526 16.8653 5.73322 16.7646 5.73144C16.6639 5.72966 16.5639 5.74819 16.4705 5.78591C16.3771 5.82363 16.2923 5.87977 16.2211 5.95099C16.1498 6.02221 16.0937 6.10705 16.056 6.20043C16.0182 6.29382 15.9997 6.39385 16.0015 6.49455C16.0033 6.59526 16.0253 6.69457 16.0663 6.78657C16.1073 6.87857 16.1664 6.96137 16.2401 7.03003L20.2101 11H3.83009L7.80009 7.03003C7.94054 6.88941 8.01943 6.69878 8.01943 6.50003C8.01943 6.30128 7.94054 6.11066 7.80009 5.97003Z" fill="#F2F2F2"/>
</svg>
