<svg width="22" height="20" viewBox="0 0 22 20" fill="none" xmlns="http://www.w3.org/2000/svg">
<path d="M10.946 14.233C10.9673 14.2601 10.9944 14.2821 11.0255 14.2972C11.0565 14.3123 11.0905 14.3202 11.125 14.3202C11.1595 14.3202 11.1935 14.3123 11.2245 14.2972C11.2556 14.2821 11.2827 14.2601 11.304 14.233L14.4858 10.2074C14.6023 10.0597 14.4972 9.84091 14.3068 9.84091H12.2017V0.227273C12.2017 0.102273 12.0994 0 11.9744 0H10.2699C10.1449 0 10.0426 0.102273 10.0426 0.227273V9.83807H7.94318C7.75284 9.83807 7.64773 10.0568 7.7642 10.2045L10.946 14.233ZM21.5227 13.2386H19.8182C19.6932 13.2386 19.5909 13.3409 19.5909 13.4659V17.8409H2.65909V13.4659C2.65909 13.3409 2.55682 13.2386 2.43182 13.2386H0.727273C0.602273 13.2386 0.5 13.3409 0.5 13.4659V19.0909C0.5 19.5938 0.90625 20 1.40909 20H20.8409C21.3438 20 21.75 19.5938 21.75 19.0909V13.4659C21.75 13.3409 21.6477 13.2386 21.5227 13.2386Z" fill="#F2F2F2"/>
</svg>
