<svg width="32" height="32" viewBox="0 0 32 32" fill="none" xmlns="http://www.w3.org/2000/svg">
<g clip-path="url(#clip0_102_211)">
<path d="M30.2339 32.0001C31.2091 32.0001 32 31.2094 32 30.234V1.76612C32 0.790625 31.2091 0 30.2339 0H1.76612C0.7905 0 0 0.790625 0 1.76612V30.234C0 31.2094 0.7905 32.0001 1.76612 32.0001H30.2339Z" fill="#395185"/>
<path d="M22.0794 32.001V19.6089H26.239L26.8618 14.7795H22.0794V11.696C22.0794 10.2977 22.4678 9.34486 24.4729 9.34486L27.0303 9.34373V5.02436C26.5878 4.96548 25.0698 4.83398 23.3038 4.83398C19.6165 4.83398 17.0923 7.08461 17.0923 11.2179V14.7795H12.922V19.6089H17.0923V32.001H22.0794Z" fill="#F2F2F2"/>
</g>
<defs>
<clipPath id="clip0_102_211">
<rect width="32" height="32" fill="white"/>
</clipPath>
</defs>
</svg>
