<svg width="24" height="24" viewBox="0 0 24 24" fill="none" xmlns="http://www.w3.org/2000/svg">
<path d="M17.3462 4C15.4984 4 13.4924 4.82495 12.5 6.475C11.5077 4.82495 9.50159 4 7.65383 4C4.42095 4 2 6.02678 2 9.42714C2 10.8938 2.58884 12.7986 3.91827 14.3798C5.24759 15.9611 6.03838 16.8033 8.61294 18.5048C11.1875 20.2065 12.5 20.5 12.5 20.5C12.5 20.5 13.8125 20.2065 16.3871 18.5048C18.9616 16.8033 19.7524 15.9611 21.0817 14.3798C22.4112 12.7986 23 10.8938 23 9.42714C23 6.02678 20.579 4 17.3462 4Z" fill="#FF6A4D"/>
</svg>
