<svg width="21" height="18" viewBox="0 0 21 18" fill="none" xmlns="http://www.w3.org/2000/svg">
<path fill-rule="evenodd" clip-rule="evenodd" d="M4.20636 1.81793C2.61094 2.54687 1.44251 4.28173 1.44251 6.35029C1.44251 8.46309 2.30802 10.0922 3.54665 11.4885C4.56891 12.6387 5.80562 13.5927 7.01156 14.5216C7.29814 14.7428 7.58279 14.963 7.86264 15.1833C8.36848 15.5824 8.81951 15.9314 9.25514 16.1863C9.68982 16.4402 10.0399 16.5565 10.338 16.5565C10.6361 16.5565 10.9862 16.4411 11.4208 16.1863C11.8565 15.9314 12.3075 15.5824 12.8133 15.1833C13.0922 14.9621 13.3778 14.7428 13.6644 14.5226C14.8704 13.5917 16.1071 12.6387 17.1293 11.4885C18.3689 10.0922 19.2335 8.46309 19.2335 6.35029C19.2335 4.28269 18.065 2.54687 16.4696 1.81793C14.9194 1.10917 12.8364 1.2967 10.8573 3.35372C10.79 3.42352 10.7093 3.47905 10.6201 3.51697C10.5309 3.55489 10.4349 3.57444 10.338 3.57444C10.241 3.57444 10.1451 3.55489 10.0559 3.51697C9.96663 3.47905 9.88597 3.42352 9.81868 3.35372C7.83956 1.2967 5.75658 1.10917 4.20636 1.81793ZM10.338 1.85255C8.1146 -0.138118 5.62483 -0.417003 3.60627 0.505242C1.47713 1.48134 0 3.7432 0 6.35125C0 8.91411 1.06746 10.8702 2.46862 12.4473C3.58993 13.71 4.96223 14.7669 6.1749 15.6997C6.44994 15.9112 6.71633 16.117 6.96925 16.3171C7.46258 16.7056 7.99151 17.1191 8.52716 17.4326C9.06281 17.7452 9.67443 18 10.338 18C11.0015 18 11.6132 17.7452 12.1488 17.4326C12.6854 17.1191 13.2134 16.7056 13.7067 16.3171C13.9701 16.1095 14.2349 15.9037 14.5011 15.6997C15.7128 14.7669 17.0861 13.709 18.2074 12.4473C19.6085 10.8702 20.676 8.91411 20.676 6.35125C20.676 3.7432 19.1998 1.48134 17.0697 0.507165C15.0511 -0.416041 12.5614 -0.137156 10.338 1.85255Z" fill="#F2F2F2"/>
</svg>
