<svg width="21" height="20" viewBox="0 0 17 15" fill="none" xmlns="http://www.w3.org/2000/svg">
    <g opacity="0.3">
    <path fill-rule="evenodd" clip-rule="evenodd" d="M8.05404 0.163947C8.2878 -0.00606512 8.6045 -0.00606512 8.83827 0.163947L16.8591 5.99728L16.0749 7.0756L14.9462 6.25471V13.5924C14.9462 13.9635 14.7935 14.3148 14.5294 14.5702C14.266 14.8249 13.9134 14.9642 13.5503 14.9642L10.5712 14.9642H9.90448H6.98782H6.32115L3.34198 14.9642C2.97886 14.9642 2.6263 14.8249 2.36295 14.5702C2.09883 14.3148 1.94615 13.9635 1.94615 13.5924V6.25471L0.817432 7.0756L0.0332031 5.99728L8.05404 0.163947ZM7.65448 13.6308H9.23782V9.86001H7.65448V13.6308ZM10.5712 13.6308V9.19334V8.52667H9.90448H6.98782H6.32115V9.19334V13.6308H3.34198C3.31833 13.6308 3.29996 13.6215 3.28982 13.6117C3.28499 13.6071 3.28245 13.6028 3.28114 13.5997C3.27984 13.5967 3.27948 13.5943 3.27948 13.5924V5.28501L8.44615 1.52744L13.6128 5.28501V13.5924C13.6128 13.5939 13.6126 13.5958 13.6118 13.5981L13.6112 13.5997C13.6098 13.6028 13.6073 13.6071 13.6025 13.6117C13.5923 13.6215 13.574 13.6308 13.5503 13.6308H10.5712Z" fill="black"/>
</g>
</svg>
