<svg width="25" height="24" viewBox="0 0 25 24" fill="none" xmlns="http://www.w3.org/2000/svg">
<path d="M8.02002 11.0005C9.12459 11.0005 10.02 10.1051 10.02 9.00052C10.02 7.89595 9.12459 7.00052 8.02002 7.00052C6.91545 7.00052 6.02002 7.89595 6.02002 9.00052C6.02002 10.1051 6.91545 11.0005 8.02002 11.0005Z" stroke="#F2F2F2" stroke-width="2" stroke-linecap="round" stroke-linejoin="round"/>
<path d="M9.02002 17L15.12 10.9C15.4956 10.5319 16.0011 10.3265 16.5271 10.3284C17.053 10.3303 17.557 10.5392 17.93 10.91L22.02 15M22.02 15V5.00003C22.02 4.4696 21.8093 3.96089 21.4342 3.58582C21.0592 3.21074 20.5505 3.00003 20.02 3.00003H4.02002C3.48959 3.00003 2.98088 3.21074 2.60581 3.58582C2.23073 3.96089 2.02002 4.4696 2.02002 5.00003V15C2.02002 15.5305 2.23073 16.0392 2.60581 16.4142C2.98088 16.7893 3.48959 17 4.02002 17H20.02C20.5505 17 21.0592 16.7893 21.4342 16.4142C21.8093 16.0392 22.02 15.5305 22.02 15ZM8.02002 21H16.02M12.02 17V21" stroke="#F2F2F2" stroke-width="2" stroke-linecap="round" stroke-linejoin="round"/>
</svg>
