<svg width="32" height="32" viewBox="0 0 32 32" fill="none" xmlns="http://www.w3.org/2000/svg">
<g clip-path="url(#clip0_102_220)">
<path d="M8.11451 31.8867C6.87677 31.8729 5.65068 31.6459 4.49004 31.2157C3.64249 30.9024 2.87567 30.4036 2.24565 29.7559C1.59616 29.1272 1.09668 28.3601 0.784314 27.5118C0.354432 26.3512 0.127743 25.1253 0.114196 23.8877C0.0191373 21.8303 0 21.2132 0 16C0 10.7868 0.0210196 10.1719 0.113255 8.11294C0.128446 6.87585 0.355414 5.6505 0.784314 4.49004C1.09821 3.64235 1.59698 2.87523 2.24439 2.24439C2.87364 1.59549 3.64082 1.09648 4.4891 0.784314C5.64973 0.354076 6.87583 0.127068 8.11357 0.113255C10.1716 0.0191373 10.7896 0 16 0C21.2104 0 21.8281 0.0210196 23.8871 0.113255C25.1245 0.128339 26.3501 0.355308 27.5109 0.784314C28.3588 1.09689 29.1258 1.59573 29.7553 2.24408C30.4038 2.8738 30.9029 3.64097 31.2157 4.4891C31.646 5.64971 31.8731 6.87581 31.8871 8.11357C31.9812 10.1725 32.0003 10.789 32.0003 16.0006C32.0003 21.2122 31.9812 21.8287 31.8871 23.8877C31.8721 25.1252 31.645 26.3511 31.2157 27.5118C30.8909 28.3536 30.3935 29.1181 29.7554 29.756C29.1173 30.3939 28.3528 30.8911 27.5109 31.2157C26.3503 31.646 25.1242 31.8731 23.8864 31.8871C21.8293 31.9812 21.211 32.0003 15.9994 32.0003C10.7878 32.0003 10.1713 31.9821 8.1142 31.8871" fill="url(#paint0_radial_102_220)"/>
<path d="M8.11451 31.8867C6.87677 31.8729 5.65068 31.6459 4.49004 31.2157C3.64249 30.9024 2.87567 30.4036 2.24565 29.7559C1.59616 29.1272 1.09668 28.3601 0.784314 27.5118C0.354432 26.3512 0.127743 25.1253 0.114196 23.8877C0.0191373 21.8303 0 21.2132 0 16C0 10.7868 0.0210196 10.1719 0.113255 8.11294C0.128446 6.87585 0.355414 5.6505 0.784314 4.49004C1.09821 3.64235 1.59698 2.87523 2.24439 2.24439C2.87364 1.59549 3.64082 1.09648 4.4891 0.784314C5.64973 0.354076 6.87583 0.127068 8.11357 0.113255C10.1716 0.0191373 10.7896 0 16 0C21.2104 0 21.8281 0.0210196 23.8871 0.113255C25.1245 0.128339 26.3501 0.355308 27.5109 0.784314C28.3588 1.09689 29.1258 1.59573 29.7553 2.24408C30.4038 2.8738 30.9029 3.64097 31.2157 4.4891C31.646 5.64971 31.8731 6.87581 31.8871 8.11357C31.9812 10.1725 32.0003 10.789 32.0003 16.0006C32.0003 21.2122 31.9812 21.8287 31.8871 23.8877C31.8721 25.1252 31.645 26.3511 31.2157 27.5118C30.8909 28.3536 30.3935 29.1181 29.7554 29.756C29.1173 30.3939 28.3528 30.8911 27.5109 31.2157C26.3503 31.646 25.1242 31.8731 23.8864 31.8871C21.8293 31.9812 21.211 32.0003 15.9994 32.0003C10.7878 32.0003 10.1713 31.9821 8.1142 31.8871" fill="url(#paint1_radial_102_220)"/>
<path d="M12.0705 16.0671C12.0706 15.2833 12.303 14.5172 12.7385 13.8655C13.174 13.2139 13.7929 12.7061 14.5171 12.4062C15.2412 12.1063 16.038 12.0279 16.8067 12.1809C17.5753 12.3339 18.2814 12.7114 18.8355 13.2657C19.3896 13.8199 19.767 14.5261 19.9198 15.2948C20.0726 16.0635 19.994 16.8603 19.694 17.5843C19.3939 18.3084 18.8859 18.9272 18.2342 19.3625C17.5825 19.7979 16.8163 20.0302 16.0325 20.03C14.9816 20.0299 13.9738 19.6123 13.2308 18.8691C12.4878 18.1259 12.0704 17.118 12.0705 16.0671ZM9.92806 16.0671C9.92806 17.2744 10.2861 18.4546 10.9568 19.4585C11.6276 20.4624 12.581 21.2448 13.6965 21.7069C14.8119 22.1689 16.0393 22.2898 17.2235 22.0542C18.4076 21.8187 19.4953 21.2373 20.349 20.3836C21.2028 19.5298 21.7842 18.4421 22.0197 17.258C22.2552 16.0738 22.1344 14.8464 21.6723 13.731C21.2103 12.6155 20.4279 11.6621 19.424 10.9914C18.4201 10.3206 17.2399 9.96258 16.0325 9.96258C15.2309 9.96254 14.4371 10.1204 13.6964 10.4272C12.9558 10.7339 12.2828 11.1836 11.7159 11.7505C11.1491 12.3173 10.6994 12.9903 10.3927 13.7309C10.0859 14.4716 9.92802 15.2654 9.92806 16.0671ZM20.9521 9.7207C20.9519 10.0028 21.0355 10.2787 21.1921 10.5133C21.3488 10.748 21.5715 10.9309 21.8321 11.039C22.0927 11.1471 22.3795 11.1755 22.6562 11.1206C22.933 11.0656 23.1872 10.9299 23.3868 10.7305C23.5864 10.5311 23.7224 10.2769 23.7775 10.0002C23.8327 9.72356 23.8046 9.43672 23.6967 9.17601C23.5889 8.9153 23.4061 8.69244 23.1716 8.53559C22.9371 8.37874 22.6613 8.29495 22.3792 8.29483C22.001 8.29499 21.6384 8.44525 21.3709 8.7126C21.1034 8.97995 20.953 9.34253 20.9527 9.7207M11.2303 25.7439C10.4765 25.7356 9.72969 25.5977 9.02264 25.3361C8.50988 25.1384 8.04419 24.8356 7.65553 24.4471C7.26688 24.0586 6.96387 23.5931 6.76602 23.0804C6.5043 22.3734 6.36634 21.6266 6.35818 20.8727C6.30045 19.6197 6.28916 19.2432 6.28916 16.0686C6.28916 12.894 6.30171 12.5185 6.35818 11.2642C6.36732 10.5105 6.50525 9.76382 6.76602 9.05655C6.96364 8.54363 7.26656 8.07782 7.65524 7.68914C8.04391 7.30046 8.50972 6.99754 9.02264 6.79992C9.72966 6.53821 10.4765 6.40025 11.2303 6.39208C12.4834 6.33435 12.8598 6.32306 16.0332 6.32306C19.2065 6.32306 19.5833 6.3353 20.8375 6.3924C21.5913 6.40154 22.338 6.53947 23.0452 6.80024C23.5581 6.99788 24.024 7.3008 24.4126 7.68947C24.8013 8.07815 25.1042 8.54395 25.3019 9.05686C25.5636 9.76388 25.7015 10.5107 25.7097 11.2646C25.7674 12.5195 25.7787 12.894 25.7787 16.0689C25.7787 19.2438 25.7671 19.6191 25.7097 20.8733C25.7009 21.6271 25.563 22.3738 25.3019 23.081C25.104 23.5937 24.801 24.0593 24.4123 24.4478C24.0237 24.8363 23.558 25.1391 23.0452 25.3367C22.3382 25.5984 21.5914 25.7364 20.8375 25.7446C19.5845 25.8023 19.2081 25.8136 16.0332 25.8136C12.8583 25.8136 12.483 25.802 11.2303 25.7446M11.1318 4.25153C10.1454 4.27093 9.16946 4.45762 8.24555 4.80368C7.45575 5.10905 6.73847 5.5761 6.13971 6.17486C5.54094 6.77363 5.0739 7.4909 4.76853 8.2807C4.42251 9.20463 4.23582 10.1806 4.21638 11.167C4.15771 12.4344 4.14453 12.8398 4.14453 16.0683C4.14453 19.2969 4.15802 19.7019 4.21638 20.9697C4.23581 21.9561 4.42251 22.932 4.76853 23.8559C5.07391 24.6457 5.54096 25.363 6.13973 25.9617C6.73849 26.5605 7.45576 27.0276 8.24555 27.3329C9.16951 27.6788 10.1454 27.8655 11.1318 27.8851C12.3999 27.9428 12.8046 27.9569 16.0332 27.9569C19.2617 27.9569 19.6667 27.9435 20.9345 27.8851C21.9209 27.8656 22.8968 27.6789 23.8208 27.3329C24.6106 27.0276 25.3278 26.5605 25.9266 25.9617C26.5253 25.363 26.9924 24.6457 27.2978 23.8559C27.6443 22.9321 27.831 21.9561 27.8499 20.9697C27.9077 19.7013 27.9208 19.2969 27.9208 16.0683C27.9208 12.8398 27.9074 12.4347 27.8499 11.167C27.8306 10.1806 27.6438 9.20462 27.2978 8.2807C26.9924 7.49105 26.5255 6.77389 25.9269 6.17514C25.3283 5.57639 24.6113 5.10926 23.8217 4.80368C22.8979 4.4574 21.9219 4.2707 20.9354 4.25153C19.6677 4.19349 19.2626 4.17969 16.0347 4.17969C12.8068 4.17969 12.4008 4.19318 11.1324 4.25153" fill="#F2F2F2"/>
</g>
<defs>
<radialGradient id="paint0_radial_102_220" cx="0" cy="0" r="1" gradientUnits="userSpaceOnUse" gradientTransform="translate(2.0709 31.2991) scale(40.6281)">
<stop offset="0.09" stop-color="#FA8F21"/>
<stop offset="0.78" stop-color="#D82D7E"/>
</radialGradient>
<radialGradient id="paint1_radial_102_220" cx="0" cy="0" r="1" gradientUnits="userSpaceOnUse" gradientTransform="translate(22.1653 30.2714) scale(35.7531)">
<stop offset="0.64" stop-color="#8C3AAA" stop-opacity="0"/>
<stop offset="1" stop-color="#8C3AAA"/>
</radialGradient>
<clipPath id="clip0_102_220">
<rect width="32" height="32" fill="white"/>
</clipPath>
</defs>
</svg>
