<svg width="22" height="22" viewBox="0 0 22 22" fill="none" xmlns="http://www.w3.org/2000/svg">
<path fill-rule="evenodd" clip-rule="evenodd" d="M4.27002 8.30254V6.99954C4.27002 5.20933 4.98118 3.49244 6.24705 2.22657C7.51292 0.960701 9.22981 0.249542 11.02 0.249542C12.8102 0.249542 14.5271 0.960701 15.793 2.22657C17.0589 3.49244 17.77 5.20933 17.77 6.99954V8.30254C17.997 8.31854 18.21 8.33854 18.412 8.36654C19.312 8.48654 20.07 8.74654 20.672 9.34754C21.274 9.94954 21.532 10.7075 21.654 11.6075C21.77 12.4745 21.77 13.5775 21.77 14.9445V15.0545C21.77 16.4215 21.77 17.5245 21.654 18.3915C21.532 19.2915 21.274 20.0495 20.672 20.6515C20.07 21.2535 19.312 21.5115 18.412 21.6335C17.545 21.7495 16.442 21.7495 15.075 21.7495H6.96502C5.59802 21.7495 4.49502 21.7495 3.62802 21.6335C2.72802 21.5115 1.97002 21.2535 1.36802 20.6515C0.76602 20.0495 0.50802 19.2915 0.38702 18.3915C0.27002 17.5245 0.27002 16.4215 0.27002 15.0545V14.9445C0.27002 13.5775 0.27002 12.4745 0.38702 11.6075C0.50702 10.7075 0.76702 9.94954 1.36802 9.34754C1.97002 8.74554 2.72802 8.48754 3.62802 8.36654C3.84124 8.33798 4.05536 8.31664 4.27002 8.30254ZM5.77002 6.99954C5.77002 5.60716 6.32314 4.2718 7.30771 3.28723C8.29227 2.30267 9.62763 1.74954 11.02 1.74954C12.4124 1.74954 13.7478 2.30267 14.7323 3.28723C15.7169 4.2718 16.27 5.60716 16.27 6.99954V8.25254C15.897 8.24954 15.498 8.24954 15.075 8.24954H6.96502C6.54202 8.24954 6.14402 8.24954 5.77002 8.25254V6.99954ZM2.42902 10.4085C2.70602 10.1315 3.09402 9.95154 3.82902 9.85254C4.58302 9.75154 5.58502 9.74954 7.02002 9.74954H15.02C16.455 9.74954 17.456 9.75154 18.212 9.85254C18.946 9.95154 19.334 10.1325 19.611 10.4085C19.888 10.6855 20.068 11.0735 20.167 11.8085C20.268 12.5635 20.27 13.5645 20.27 14.9995C20.27 16.4345 20.268 17.4355 20.167 18.1915C20.068 18.9255 19.887 19.3135 19.611 19.5905C19.334 19.8675 18.946 20.0475 18.211 20.1465C17.456 20.2475 16.455 20.2495 15.02 20.2495H7.02002C5.58502 20.2495 4.58302 20.2475 3.82802 20.1465C3.09402 20.0475 2.70602 19.8665 2.42902 19.5905C2.15202 19.3135 1.97202 18.9255 1.87302 18.1905C1.77202 17.4355 1.77002 16.4345 1.77002 14.9995C1.77002 13.5645 1.77202 12.5625 1.87302 11.8075C1.97202 11.0735 2.15302 10.6855 2.42902 10.4085Z" fill="#F2F2F2"/>
</svg>
