<svg width="15" height="14" viewBox="0 0 15 14" fill="none" xmlns="http://www.w3.org/2000/svg">
<path d="M14.4716 5.2693C14.4088 5.07573 14.2905 4.90491 14.1313 4.77812C13.9721 4.65133 13.7792 4.57417 13.5764 4.55625L9.72664 4.22436L8.21757 0.63578C8.139 0.447481 8.00648 0.286638 7.83668 0.173503C7.66689 0.060368 7.46742 0 7.26338 0C7.05935 0 6.85988 0.060368 6.69008 0.173503C6.52029 0.286638 6.38776 0.447481 6.30919 0.63578L4.80466 4.22436L0.950313 4.55819C0.746793 4.57529 0.552853 4.6521 0.392812 4.77899C0.232771 4.90587 0.113755 5.07719 0.0506875 5.27144C-0.0123799 5.4657 -0.0166906 5.67425 0.038296 5.87094C0.0932825 6.06764 0.205119 6.24372 0.35978 6.37711L3.28393 8.93242L2.40752 12.7271C2.36118 12.9257 2.37441 13.1335 2.44554 13.3246C2.51668 13.5158 2.64257 13.6817 2.80748 13.8016C2.97238 13.9215 3.16899 13.9902 3.37271 13.999C3.57644 14.0078 3.77824 13.9564 3.95289 13.8512L7.25884 11.8417L10.5719 13.8512C10.7466 13.9564 10.9484 14.0078 11.1521 13.999C11.3558 13.9902 11.5524 13.9215 11.7173 13.8016C11.8822 13.6817 12.0081 13.5158 12.0793 13.3246C12.1504 13.1335 12.1636 12.9257 12.1173 12.7271L11.2415 8.92853L14.165 6.37711C14.3197 6.24326 14.4313 6.06668 14.4859 5.86957C14.5404 5.67245 14.5355 5.46361 14.4716 5.2693ZM13.4851 5.59341L10.5616 8.14482C10.4193 8.26859 10.3134 8.42881 10.2554 8.60825C10.1974 8.78768 10.1894 8.97954 10.2323 9.16319L11.1106 12.9644L7.80011 10.9549C7.6386 10.8565 7.45314 10.8045 7.26403 10.8045C7.07492 10.8045 6.88946 10.8565 6.72795 10.9549L3.422 12.9644L4.29451 9.16578C4.33739 8.98214 4.32939 8.79028 4.27136 8.61084C4.21334 8.43141 4.1075 8.27119 3.96521 8.14742L1.04042 5.5973C1.04018 5.59536 1.04018 5.5934 1.04042 5.59146L4.89347 5.25828C5.08159 5.2417 5.2616 5.17407 5.41411 5.06269C5.56661 4.95131 5.68581 4.80041 5.75885 4.62626L7.26338 1.04222L8.76726 4.62626C8.8403 4.80041 8.9595 4.95131 9.11201 5.06269C9.26451 5.17407 9.44453 5.2417 9.63265 5.25828L13.4863 5.59146V5.596L13.4851 5.59341Z" fill="#F2F2F2"/>
</svg>
