<svg width="21" height="20" viewBox="0 0 21 20" fill="none" xmlns="http://www.w3.org/2000/svg">
<path d="M19.2593 8.14815H1.48148V12.5926C1.48148 12.9855 1.63757 13.3623 1.9154 13.6402C2.19323 13.918 2.57005 14.0741 2.96296 14.0741H7.40741V18.5185H13.3333V14.0741H17.7778C18.1707 14.0741 18.5475 13.918 18.8253 13.6402C19.1032 13.3623 19.2593 12.9855 19.2593 12.5926V8.14815ZM1.41778 6.66667C1.41778 5.56593 1.53926 4.57778 1.77778 3.7037C2.11852 2.45333 2.76148 1.21778 3.7037 0H13.363L13.0074 1.62815L15.5556 0H20.4444C19.8696 0.992593 19.4741 2.22815 19.2593 3.7037C19.1164 4.68446 19.0688 5.67674 19.117 6.66667H20.7407V12.5926C20.7407 13.3784 20.4286 14.1321 19.8729 14.6877C19.3172 15.2434 18.5636 15.5556 17.7778 15.5556H14.8148V19.2593C14.8148 19.4557 14.7368 19.6441 14.5979 19.783C14.4589 19.922 14.2705 20 14.0741 20H6.66667C6.47021 20 6.2818 19.922 6.14288 19.783C6.00397 19.6441 5.92593 19.4557 5.92593 19.2593V15.5556H2.96296C2.17714 15.5556 1.4235 15.2434 0.867832 14.6877C0.312168 14.1321 0 13.3784 0 12.5926V6.66667H1.41778ZM2.89926 6.66667H17.6341C17.5867 5.60593 17.64 4.54667 17.7926 3.49037C17.8963 2.7763 18.04 2.10667 18.2252 1.48148H15.9881L10.8696 4.75111L11.5259 1.48148H4.4563C3.85778 2.35852 3.44296 3.22815 3.20741 4.09333C3.00444 4.83556 2.90074 5.69333 2.89926 6.66667Z" fill="#F2F2F2"/>
</svg>
