<svg width="12" height="15" viewBox="0 0 12 15" fill="none" xmlns="http://www.w3.org/2000/svg">
<path fill-rule="evenodd" clip-rule="evenodd" d="M9.51259 0.25C9.17121 0.249886 8.83396 0.324682 8.52463 0.469112C8.21531 0.613542 7.94144 0.824088 7.72235 1.0859C7.50326 1.34771 7.3443 1.6544 7.25666 1.98434C7.16902 2.31428 7.15485 2.65944 7.21514 2.99546L3.81922 5.37332C3.80223 5.38507 3.78593 5.39777 3.7704 5.41137C3.42587 5.14205 3.01261 4.97497 2.57772 4.92917C2.14283 4.88338 1.70382 4.96071 1.31076 5.15235C0.917694 5.344 0.586395 5.64224 0.35464 6.01307C0.122884 6.3839 0 6.8124 0 7.24969C0 7.68699 0.122884 8.11548 0.35464 8.48631C0.586395 8.85714 0.917694 9.15539 1.31076 9.34703C1.70382 9.53868 2.14283 9.61601 2.57772 9.57021C3.01261 9.52442 3.42587 9.35733 3.7704 9.08801C3.78591 9.10186 3.80221 9.11481 3.81922 9.12678L7.21514 11.5046C7.11433 12.0666 7.22306 12.6461 7.52076 13.1333C7.81845 13.6205 8.28445 13.9816 8.83052 14.1483C9.37659 14.315 9.96484 14.2757 10.4839 14.0379C11.0029 13.8 11.4168 13.3801 11.647 12.8577C11.8773 12.3352 11.908 11.7464 11.7333 11.2029C11.5587 10.6593 11.1908 10.1986 10.6993 9.90804C10.2078 9.61748 9.62681 9.51721 9.06636 9.62621C8.50591 9.73522 8.00488 10.0459 7.65812 10.4995L4.4424 8.24872C4.58599 7.94575 4.6664 7.60759 4.6664 7.25005C4.6664 6.89251 4.58599 6.55364 4.4424 6.25138L7.65883 3.99987C7.89977 4.31525 8.21716 4.56396 8.58101 4.72248C8.94485 4.88101 9.34311 4.94411 9.73813 4.90582C10.1332 4.86753 10.5119 4.72911 10.8385 4.50366C11.1651 4.27821 11.4289 3.97317 11.6047 3.61739C11.7806 3.26162 11.8628 2.86686 11.8436 2.47045C11.8244 2.07404 11.7044 1.68907 11.495 1.35196C11.2855 1.01485 10.9936 0.736737 10.6467 0.543912C10.2998 0.351087 9.90947 0.249928 9.51259 0.25ZM8.25617 2.58335C8.25617 2.25013 8.38854 1.93055 8.62417 1.69493C8.85979 1.4593 9.17937 1.32693 9.51259 1.32693C9.84581 1.32693 10.1654 1.4593 10.401 1.69493C10.6366 1.93055 10.769 2.25013 10.769 2.58335C10.769 2.91657 10.6366 3.23615 10.401 3.47177C10.1654 3.7074 9.84581 3.83977 9.51259 3.83977C9.17937 3.83977 8.85979 3.7074 8.62417 3.47177C8.38854 3.23615 8.25617 2.91657 8.25617 2.58335ZM2.33305 5.99363C1.99983 5.99363 1.68025 6.126 1.44463 6.36163C1.209 6.59725 1.07663 6.91683 1.07663 7.25005C1.07663 7.58327 1.209 7.90285 1.44463 8.13847C1.68025 8.3741 1.99983 8.50647 2.33305 8.50647C2.66628 8.50647 2.98585 8.3741 3.22147 8.13847C3.4571 7.90285 3.58947 7.58327 3.58947 7.25005C3.58947 6.91683 3.4571 6.59725 3.22147 6.36163C2.98585 6.126 2.66628 5.99363 2.33305 5.99363ZM9.51259 10.6603C9.17937 10.6603 8.85979 10.7927 8.62417 11.0283C8.38854 11.264 8.25617 11.5835 8.25617 11.9168C8.25617 12.25 8.38854 12.5696 8.62417 12.8052C8.85979 13.0408 9.17937 13.1732 9.51259 13.1732C9.84581 13.1732 10.1654 13.0408 10.401 12.8052C10.6366 12.5696 10.769 12.25 10.769 11.9168C10.769 11.5835 10.6366 11.264 10.401 11.0283C10.1654 10.7927 9.84581 10.6603 9.51259 10.6603Z" fill="#F2F2F2"/>
</svg>
