<svg width="32" height="32" viewBox="0 0 32 32" fill="none" xmlns="http://www.w3.org/2000/svg">
<g clip-path="url(#clip0_102_236)">
<path d="M0.0124512 23.8608V23.8623C0.0316028 24.5726 0.03751 25.2871 0.157332 25.9931C0.284304 26.74 0.465809 27.4683 0.812092 28.1462C1.28025 29.0637 1.9232 29.8385 2.73478 30.4715C3.31747 30.926 3.95401 31.2867 4.65864 31.5143C5.68611 31.8457 6.7461 31.9728 7.82157 31.979C8.49256 31.9832 9.16312 32 9.83435 31.9972C14.709 31.9767 19.5838 32.0324 24.4585 31.9671C25.1054 31.9583 25.7417 31.8794 26.3765 31.7633C27.5934 31.5406 28.6688 31.0214 29.5888 30.2006C30.6611 29.2442 31.3846 28.0737 31.7112 26.661C31.9249 25.7376 31.9784 24.8008 31.9875 23.8607V23.6732C31.9875 23.6004 31.9598 7.6995 31.9573 7.48933C31.9501 6.91198 31.9076 6.33899 31.7994 5.77091C31.6677 5.07865 31.4817 4.40412 31.1503 3.77784C30.8002 3.11617 30.3618 2.52123 29.8195 2.00134C28.9889 1.20481 28.0303 0.641516 26.9143 0.343547C25.9064 0.0744923 24.8781 0.0149234 23.8423 0.0158561C23.8406 0.0156074 23.8367 0.0050988 23.8365 0H8.15853C8.15822 0.00534752 8.15803 0.0106951 8.15766 0.0158561C7.5698 0.0266133 6.98108 0.0221984 6.39621 0.0947008C5.7555 0.174354 5.12095 0.2943 4.5145 0.518274C3.55929 0.871584 2.72936 1.42188 2.02045 2.15654C1.21726 2.98889 0.651107 3.95151 0.350713 5.07243C0.0827153 6.07255 0.0243902 7.09255 0.0229601 8.11977" fill="#FFFC00"/>
<path d="M16.1452 26.9989C16.0787 26.9989 16.0154 26.9965 15.9672 26.9942C15.929 26.9975 15.8895 26.9989 15.8499 26.9989C14.4548 26.9989 13.5219 26.3394 12.6987 25.757C12.1087 25.3402 11.5523 24.9467 10.9004 24.8383C10.5802 24.7852 10.2617 24.7582 9.95397 24.7582C9.39951 24.7582 8.96132 24.8442 8.6414 24.9068C8.44454 24.9451 8.27479 24.9782 8.14359 24.9782C8.00617 24.9782 7.83921 24.9477 7.76963 24.7101C7.71448 24.5227 7.67493 24.3411 7.63675 24.1663C7.54124 23.7293 7.47197 23.4626 7.30838 23.4373C5.55856 23.1673 4.52468 22.7696 4.31874 22.288C4.29716 22.2374 4.2851 22.1864 4.28243 22.1361C4.27441 21.9925 4.37576 21.8666 4.51728 21.8431C5.90689 21.6143 7.14248 20.8798 8.18991 19.6594C9.0013 18.7146 9.39976 17.8119 9.44254 17.7122C9.4444 17.7077 9.44658 17.703 9.44881 17.6987C9.65071 17.289 9.69088 16.9351 9.56857 16.6468C9.34311 16.1151 8.59638 15.8782 8.10236 15.7215C7.97949 15.6826 7.86328 15.6458 7.77069 15.6091C7.33275 15.4361 6.61252 15.0706 6.70846 14.5661C6.77835 14.1982 7.26491 13.9421 7.65814 13.9421C7.76733 13.9421 7.86408 13.9612 7.94554 13.9995C8.38988 14.2076 8.78964 14.3132 9.13344 14.3132C9.56099 14.3132 9.76749 14.1504 9.81742 14.1041C9.80511 13.876 9.79006 13.6349 9.77551 13.4068C9.77551 13.4066 9.7752 13.4038 9.7752 13.4038C9.67484 11.8073 9.54967 9.82055 10.0579 8.68122C11.5789 5.2708 14.8047 5.0056 15.7568 5.0056C15.7821 5.0056 16.1718 5.00175 16.1718 5.00175C16.1894 5.00144 16.2085 5.00119 16.2282 5.00119C17.1829 5.00119 20.4154 5.2667 21.9374 8.67917C22.4456 9.81924 22.3203 11.8077 22.2196 13.4059L22.2149 13.4824C22.2011 13.6994 22.1884 13.9048 22.1776 14.1039C22.2246 14.1471 22.4136 14.2964 22.798 14.3115C23.1258 14.2989 23.5024 14.1939 23.9172 13.9997C24.0454 13.9395 24.1873 13.927 24.2837 13.927C24.4294 13.927 24.5776 13.9554 24.7012 14.0069L24.7078 14.0095C25.0597 14.1344 25.2902 14.384 25.2952 14.6463C25.2996 14.8908 25.1179 15.2562 24.2243 15.6092C24.1327 15.6454 24.016 15.6825 23.8926 15.7216C23.3981 15.8785 22.652 16.1153 22.4266 16.6467C22.3041 16.9349 22.3444 17.2888 22.5463 17.6983C22.5486 17.7028 22.5505 17.7073 22.5527 17.7121C22.6148 17.8578 24.1199 21.2896 27.4779 21.8428C27.6194 21.8664 27.7209 21.9924 27.7128 22.1358C27.7099 22.1873 27.6974 22.2387 27.6757 22.289C27.4711 22.768 26.4373 23.1652 24.687 23.4355C24.5227 23.4609 24.4535 23.7264 24.3589 24.161C24.3197 24.3406 24.2799 24.5165 24.2254 24.7015C24.1745 24.8754 24.0612 24.9604 23.8793 24.9604H23.8519C23.7334 24.9604 23.5656 24.9389 23.3539 24.8975C22.984 24.8254 22.569 24.7584 22.0414 24.7584C21.7337 24.7584 21.4153 24.7854 21.0947 24.8384C20.4435 24.9469 19.8871 25.3397 19.2981 25.7561C18.4733 26.3393 17.5402 26.9989 16.1452 26.9989Z" fill="white"/>
<path d="M16.228 5.28217C17.1268 5.28217 20.2219 5.52362 21.6804 8.79363C22.1607 9.87041 22.0376 11.8209 21.9389 13.3878C21.9234 13.6365 21.9081 13.8775 21.8957 14.1076L21.8905 14.2066L21.9565 14.2802C21.9832 14.3098 22.2329 14.5708 22.7881 14.5922L22.7971 14.5927L22.8064 14.5925C23.1735 14.5785 23.587 14.4645 24.0361 14.2541C24.1023 14.2232 24.1903 14.2081 24.2834 14.2081C24.3896 14.2081 24.5024 14.228 24.5954 14.2672L24.6095 14.2728C24.8449 14.3553 25.0114 14.5109 25.0139 14.6516C25.0153 14.7312 24.9558 15.018 24.1211 15.3477C24.0395 15.3799 23.9321 15.4142 23.8076 15.4534C23.2644 15.6259 22.4438 15.8862 22.1676 16.537C22.0121 16.9036 22.0546 17.3363 22.294 17.8228C22.3925 18.0527 23.9431 21.5452 27.4321 22.1201C27.4314 22.1367 27.4272 22.1548 27.4178 22.1761C27.3587 22.3154 26.9828 22.7966 24.6438 23.1575C24.2778 23.2136 24.1882 23.6239 24.0842 24.1008C24.0467 24.2715 24.0085 24.4439 23.956 24.6219C23.94 24.6757 23.937 24.6787 23.8793 24.6787C23.8714 24.6787 23.862 24.6787 23.8519 24.6787C23.7481 24.6787 23.5907 24.6572 23.4082 24.6214C23.0758 24.5567 22.6218 24.4773 22.0413 24.4773C21.7174 24.4773 21.3837 24.5055 21.0488 24.5614C20.3331 24.6804 19.751 25.0921 19.1345 25.5278C18.3067 26.1128 17.451 26.7181 16.1454 26.7181C16.0884 26.7181 16.0328 26.7162 15.977 26.7134L15.9623 26.7128L15.9476 26.7139C15.9156 26.7167 15.8833 26.7181 15.8503 26.7181C14.545 26.7181 13.6889 26.113 12.8615 25.5278C12.2449 25.0921 11.6625 24.6804 10.9468 24.5614C10.6123 24.5056 10.2783 24.4773 9.95451 24.4773C9.37418 24.4773 8.91958 24.5661 8.58791 24.6309C8.40541 24.6666 8.24741 24.6972 8.144 24.6972C8.05931 24.6972 8.0577 24.6922 8.03979 24.6311C7.98731 24.4529 7.94894 24.2764 7.91157 24.1059C7.80736 23.6285 7.71763 23.216 7.35182 23.1599C5.01303 22.7987 4.63709 22.3166 4.57777 22.1777C4.5685 22.1558 4.56433 22.1372 4.5634 22.1206C8.05235 21.5462 9.60257 18.0535 9.70137 17.8228C9.9412 17.3367 9.98374 16.9041 9.82773 16.537C9.55152 15.8866 8.73099 15.6259 8.18815 15.4537C8.06335 15.4142 7.95591 15.3799 7.87426 15.3477C7.16938 15.0692 6.95256 14.7886 6.98477 14.6186C7.02214 14.4226 7.36202 14.2232 7.65862 14.2232C7.72528 14.2232 7.78373 14.234 7.82694 14.2542C8.30866 14.48 8.7484 14.5944 9.1341 14.5944C9.74042 14.5944 10.0103 14.3123 10.0393 14.2801L10.105 14.2066L10.0997 14.1082C10.0875 13.8782 10.0723 13.6372 10.0564 13.3891C9.95799 11.8218 9.83488 9.87258 10.315 8.79574C11.7681 5.53773 14.8481 5.28659 15.7573 5.28659C15.7797 5.28659 16.175 5.28254 16.175 5.28254C16.1912 5.28242 16.2091 5.28217 16.228 5.28217ZM16.228 4.72018H16.2269C16.2062 4.72018 16.1867 4.72018 16.1682 4.72043C16.0205 4.72193 15.7776 4.72429 15.7558 4.72454C15.2231 4.72454 14.1574 4.79978 13.0127 5.30505C12.3582 5.59376 11.7694 5.98413 11.2629 6.46534C10.659 7.03871 10.167 7.74564 9.80093 8.56679C9.26474 9.76911 9.39203 11.7943 9.49425 13.4217L9.49463 13.4243C9.50557 13.5986 9.51707 13.7806 9.52758 13.9579C9.44892 13.994 9.32139 14.0321 9.13342 14.0321C8.83097 14.0321 8.47132 13.9355 8.06472 13.7449C7.94509 13.6892 7.80854 13.6611 7.65788 13.6611C7.41581 13.6611 7.16062 13.7323 6.93926 13.8625C6.66075 14.026 6.4808 14.2571 6.43193 14.5134C6.39972 14.6829 6.40127 15.0179 6.77342 15.3576C6.97812 15.5447 7.27882 15.7172 7.66695 15.8706C7.76881 15.9107 7.88968 15.949 8.01771 15.9896C8.46199 16.1308 9.13441 16.3441 9.30976 16.7568C9.39862 16.9661 9.36038 17.2414 9.19641 17.5742C9.19212 17.5833 9.18783 17.5922 9.18391 17.6015C9.14293 17.6972 8.76065 18.5631 7.97649 19.4764C7.5309 19.9957 7.04011 20.4297 6.51854 20.7667C5.88194 21.1782 5.1931 21.4472 4.47137 21.5661C4.18796 21.6126 3.98556 21.8651 4.00135 22.152C4.0062 22.2347 4.0256 22.3172 4.05924 22.397C4.05949 22.3975 4.0598 22.398 4.06005 22.3984C4.17465 22.6665 4.44035 22.8942 4.87231 23.095C5.40016 23.3402 6.18961 23.5464 7.21851 23.7078C7.27049 23.8067 7.32446 24.0551 7.36183 24.2253C7.40095 24.4061 7.44174 24.592 7.49987 24.7895C7.56261 25.0035 7.72534 25.2591 8.14338 25.2591C8.30182 25.2591 8.484 25.2234 8.69498 25.1825C9.00396 25.1219 9.42647 25.0392 9.95383 25.0392C10.2462 25.0392 10.5492 25.065 10.8542 25.1156C11.4421 25.2135 11.949 25.5715 12.5354 25.9862C13.3937 26.5929 14.3653 27.2797 15.8497 27.2797C15.8902 27.2797 15.9308 27.2784 15.9709 27.2756C16.02 27.2779 16.0808 27.2797 16.145 27.2797C17.6298 27.2797 18.6011 26.5927 19.4585 25.9864L19.4599 25.9852C20.0465 25.571 20.5527 25.2135 21.1405 25.1156C21.4453 25.065 21.7483 25.0392 22.0408 25.0392C22.5446 25.0392 22.9435 25.1034 23.2996 25.1729C23.5321 25.2187 23.7127 25.2407 23.8513 25.2407L23.8648 25.2409H23.8789C24.1846 25.2409 24.4093 25.0731 24.495 24.7794C24.552 24.5861 24.5927 24.4045 24.6328 24.2207C24.6677 24.0612 24.7236 23.8057 24.7755 23.7057C25.8051 23.5441 26.5943 23.3383 27.1222 23.0931C27.5531 22.8932 27.8185 22.6658 27.9338 22.3988C27.9684 22.3188 27.9886 22.2359 27.9931 22.1514C28.0094 21.865 27.8067 21.6119 27.523 21.5654C24.3155 21.0368 22.8705 17.741 22.8107 17.6009C22.8068 17.5917 22.8025 17.5826 22.798 17.5737C22.634 17.2408 22.5961 16.9658 22.685 16.7561C22.86 16.3438 23.532 16.1305 23.9766 15.9893C24.1053 15.9488 24.2266 15.9102 24.3277 15.8703C24.7653 15.6975 25.0782 15.5099 25.2846 15.297C25.531 15.0431 25.579 14.7998 25.5761 14.6406C25.5685 14.2555 25.2741 13.9133 24.8058 13.7457C24.6476 13.6803 24.4672 13.6458 24.2835 13.6458C24.1585 13.6458 23.9733 13.6629 23.798 13.7447C23.4227 13.9203 23.0866 14.0164 22.798 14.03C22.6446 14.0223 22.5369 13.989 22.4672 13.9572C22.476 13.807 22.4857 13.6527 22.4957 13.4917L22.4999 13.4228C22.6026 11.7943 22.7304 9.76762 22.1939 8.56443C21.8263 7.74035 21.3325 7.03162 20.7262 6.45701C20.2177 5.97548 19.627 5.58518 18.9701 5.29666C17.827 4.79511 16.7613 4.72018 16.228 4.72018Z" fill="#020202"/>
</g>
<defs>
<clipPath id="clip0_102_236">
<rect width="32" height="32" fill="white"/>
</clipPath>
</defs>
</svg>
