<svg width="32" height="32" viewBox="0 0 32 32" fill="none" xmlns="http://www.w3.org/2000/svg">
<g clip-path="url(#clip0_102_186)">
<path d="M8.54455 27.4057L9.06161 27.6643C11.2164 28.957 13.6295 29.5603 16.0427 29.5603C23.6269 29.5603 29.8322 23.355 29.8322 15.7708C29.8322 12.1511 28.367 8.61749 25.7816 6.03192C23.196 3.44634 19.7485 1.98126 16.0427 1.98126C8.45843 1.98126 2.25303 8.18654 2.33927 15.857C2.33927 18.4425 3.11493 20.9419 4.40765 23.0964L4.75236 23.6136L3.37352 28.6985L8.54455 27.4057Z" fill="#00E676"/>
<path d="M27.2473 4.65396C24.317 1.63756 20.2664 0 16.1295 0C7.33872 0 0.271542 7.1533 0.357658 15.8579C0.357658 18.6158 1.13332 21.2877 2.42617 23.7008L0.185303 31.8883L8.54521 29.7337C10.8722 31.0265 13.4576 31.6298 16.0433 31.6298C24.748 31.6298 31.8151 24.4764 31.8151 15.7719C31.8151 11.5488 30.1776 7.58425 27.2474 4.65396H27.2473ZM16.1295 28.9581C13.8025 28.9581 11.4755 28.355 9.49323 27.1484L8.97616 26.8898L3.97749 28.1825L5.27021 23.2701L4.9255 22.7529C1.13332 16.6338 2.94323 8.53226 9.14851 4.74008C15.3538 0.948016 23.369 2.75793 27.1612 8.96321C30.9532 15.1685 29.1433 23.1837 22.9382 26.9759C20.9558 28.2686 18.5427 28.958 16.1295 28.958V28.9581ZM23.7137 19.3918L22.7657 18.9608C22.7657 18.9608 21.3868 18.3575 20.5249 17.9265C20.4387 17.9265 20.3526 17.8403 20.2664 17.8403C20.0078 17.8403 19.8354 17.9265 19.663 18.0128C19.663 18.0128 19.5769 18.0989 18.3703 19.4779C18.2841 19.6502 18.1117 19.7365 17.9394 19.7365H17.8531C17.767 19.7365 17.5947 19.6502 17.5084 19.5641L17.0775 19.3918C16.1295 18.9608 15.2677 18.4436 14.5781 17.7542C14.4058 17.5818 14.1472 17.4095 13.9748 17.2371C13.3715 16.6338 12.7682 15.9443 12.3374 15.1686L12.2512 14.9963C12.165 14.91 12.165 14.8239 12.0788 14.6516C12.0788 14.4792 12.0788 14.3068 12.165 14.2206C12.165 14.2206 12.5098 13.7897 12.7682 13.5312C12.9407 13.3587 13.0268 13.1002 13.1992 12.9279C13.3715 12.6693 13.4578 12.3246 13.3715 12.066C13.2854 11.635 12.2512 9.30805 11.9927 8.79098C11.8202 8.53239 11.648 8.44627 11.3894 8.36003H10.4414C10.2689 8.36003 10.0967 8.44627 9.92418 8.44627L9.83794 8.53239C9.66558 8.61862 9.49323 8.79098 9.32087 8.8771C9.14852 9.04957 9.06228 9.22181 8.88992 9.39429C8.28662 10.1699 7.94191 11.118 7.94191 12.066C7.94191 12.7554 8.11426 13.4449 8.37286 14.0482L8.4591 14.3068C9.23476 15.9443 10.2689 17.4095 11.648 18.7022L11.9927 19.0469C12.2512 19.3055 12.5098 19.4779 12.6821 19.7363C14.492 21.2878 16.5604 22.4082 18.8874 23.0115C19.146 23.0976 19.4907 23.0976 19.7493 23.1838H20.6111C21.042 23.1838 21.5591 23.0115 21.9039 22.8391C22.1624 22.6667 22.3347 22.6667 22.5071 22.4944L22.6796 22.3219C22.8519 22.1496 23.0243 22.0634 23.1966 21.8911C23.369 21.7187 23.5413 21.5464 23.6276 21.3739C23.7999 21.0292 23.8861 20.5982 23.9723 20.1674V19.5641C23.9723 19.5641 23.8861 19.4779 23.7137 19.3918Z" fill="#F2F2F2"/>
</g>
<defs>
<clipPath id="clip0_102_186">
<rect width="31.6293" height="32" fill="white" transform="translate(0.185303)"/>
</clipPath>
</defs>
</svg>
